# xmcd
#
# Track frame offsets: 
#        150
#        11850
#        26420
#        45637
#        65716
#        81723
#        104465
#        124119
#
# Disc length: 1986 seconds
#
# Revision: 0
# Processed by: cddbd v1.5.2PL0 Copyright (c) Steve Scherf et al.
# Submitted via: ExactAudioCopy v0.99pb5
#
DISCID=6e07c008
DTITLE=Led Zeppelin  - Lost Mixes EP Vol 08 - Disc 2
DYEAR=1900
DGENRE=
TTITLE0=11 We're Gonna Groove
TTITLE1=12 Poor Tom
TTITLE2=13 I Can't Quit You
TTITLE3=14 Walter's Walk
TTITLE4=15 Ozone Baby
TTITLE5=16 Darlene
TTITLE6=17 Bonzo's Montreux
TTITLE7=18 Wearing and Tearing
EXTD=
EXTT0=
EXTT1=
EXTT2=
EXTT3=
EXTT4=
EXTT5=
EXTT6=
EXTT7=
PLAYORDER=
